<svg width="128" height="128" xmlns="http://www.w3.org/2000/svg" xmlns:xlink="http://www.w3.org/1999/xlink">
 <defs>
  <rect id="path_0" x="0" y="0" width="128" height="128"/>
 </defs>
 <g>
  <title>Layer 1</title>
  <rect id="svg_7" height="128" width="128" y="0" x="0" fill="#ffffff"/>
  <g stroke="null" id="svg_1">
   <mask stroke="null" id="bg-mask" fill="white">
    <use stroke="null" xlink:href="#path_0" id="svg_2"/>
   </mask>
   <g stroke="null" mask="url(#bg-mask)" id="svg_3">
    <path stroke="null" id="矩形 1" fill-rule="evenodd" d="m0,126.99999l126.99999,0l0,-126.99999l-126.99999,0l0,126.99999z" fill="#FFFFFF"/>
     <g stroke="null" mask="url(#bg-mask)" id="svg_6">
      <path stroke="null" id="分组 1" fill-rule="evenodd" d="m41.72089,86.10883c-4.953,-4.65667 -8.08567,-10.24467 -10.033,-16.891c-1.69333,-5.715 -1.524,-11.938 -1.524,-18.034c0,-3.175 1.905,-10.32933 2.49767,-13.16567c-3.89467,6.096 -8.59367,17.272 -8.59367,25.019c0,21.59 17.48367,39.116 39.07366,39.116c9.652,0 20.193,-7.32367 25.273,-14.77433c-9.69433,4.36033 -8.04333,4.91067 -14.859,6.731c-13.80067,3.59833 -24.384,-1.016 -31.83466,-8.001zm30.1752,-61.81598c-17.78,-2.286 -37.973,9.18633 -39.878,26.88167c8.382,-16.51 21.25133,-22.90233 36.66066,-20.91267c4.86833,0.635 9.44033,2.11667 13.54667,4.318l4.52967,-5.24933l0,0c-4.572,-2.667 -9.60967,-4.40267 -14.859,-5.03767zm-11.7602,12.01505c0.55033,-0.21167 2.20133,0 2.413,-0.55033c-1.143,0.21167 -2.54,0.254 -3.556,0.80433c-0.46567,0.21167 -0.97367,0.93133 -1.43933,0.46567c-0.46567,-0.46567 0.33867,-1.22767 0.71967,-1.48167l-0.08467,0c3.048,-0.635 6.18067,-0.762 9.271,-0.33867c-0.42333,0.254 -0.127,0.381 -0.42333,0.59267c-0.55033,0.42333 -1.60867,0.80433 -2.286,1.05833c0.889,0 3.00567,0.80433 3.38667,-0.42333l-0.84667,-0.127c0.55033,-0.33867 1.143,-0.635 1.73567,-0.80433c5.461,1.05833 10.45633,3.81 14.26633,7.874l-0.08467,0c-1.016,0 -1.778,0 -2.62467,0.59267c-0.33867,0.254 -0.55033,0.55033 -0.97367,0.67733c-0.381,0.08467 -0.80433,0 -1.18533,0.127c-1.397,0.46567 -1.18533,3.429 -3.00567,3.00567c-0.84667,-0.21167 -1.43933,-1.22767 -1.86267,-1.905c-0.381,-0.55033 -1.10067,-1.05833 -0.635,-1.778c-0.21167,0.04233 -0.42333,0 -0.635,0.04233c0.29633,-0.635 1.27,-0.59267 1.43933,-0.93133c0.42333,-0.80433 -1.10067,-0.889 -1.56633,-1.016c0.55033,-0.55033 0.80433,0.21167 1.31233,0.08467c0.508,-0.127 -0.254,-0.80433 -0.55033,-0.84667c-0.127,-0.04233 -1.86267,0.46567 -0.84667,-0.42333l-3.72533,-2.37067c-0.21167,0.889 1.651,1.35467 2.286,1.69333c-0.127,0.33867 -0.67733,0.889 -1.10067,0.71967c-0.42333,-0.127 -0.254,-0.80433 -0.84667,-0.762c-0.46567,1.016 0.93133,0.71967 1.05833,1.35467c0.127,0.71967 -0.55033,0.42333 -0.80433,0.42333c-0.04233,-0.04233 -0.508,-0.508 -0.55033,-0.127c-0.04233,0.42333 0.762,0.254 0.80433,0.71967c-0.889,0 -1.35467,-0.29633 -2.11667,-0.80433c-0.889,-0.59267 -1.31233,-0.55033 -2.37067,-0.55033c0.29633,-0.127 0.762,-0.21167 1.016,-0.42333c0.127,-0.127 0.71967,-0.67733 0.762,-0.80433c0.16933,-0.55033 0,-0.508 -0.508,-0.84667c-0.46567,-0.33867 -1.05833,-0.889 -1.60867,-1.016c-2.032,-0.42333 -0.635,1.82033 -2.20133,2.159l0.08467,0l-0.08467,0l0,0c-0.33867,-0.04233 -1.016,-0.127 -1.22767,0.08467c-0.16933,0.127 -0.21167,0.67733 -0.381,0.84667c-0.33867,0.33867 -0.80433,0.42333 -1.18533,0.67733c-0.381,0.254 -1.22767,0.889 -1.43933,1.31233c-0.80433,1.524 1.86267,2.032 2.83633,2.49767c0.46567,0.21167 1.82033,0.46567 2.07433,0.80433c0.29633,0.46567 -0.29633,0.93133 0.381,1.22767c0.21167,0.127 0.67733,0.127 0.889,-0.08467c0.29633,-0.33867 -0.127,-0.42333 -0.21167,-0.80433c-0.127,-0.80433 0.08467,-0.508 0.508,-0.762c0.762,-0.59267 0.59267,-0.635 0.29633,-1.56633c-0.127,-0.46567 -0.635,-1.69333 -0.16933,-1.98967c0.55033,-0.42333 1.778,0.21167 2.24367,0.29633c0.508,0.04233 0.80433,0.762 1.10067,1.05833c0.16933,0.16933 0.508,0.59267 0.84667,0.55033c0.508,-0.08467 0.29633,-0.508 0.59267,-0.71967c0.80433,-0.55033 1.016,0.16933 1.31233,0.93133c0.29633,0.71967 0.59267,0.97367 1.143,1.43933c0.254,0.21167 1.35467,0.97367 1.22767,1.43933c-0.04233,0.33867 -1.31233,0.80433 -1.651,0.889c-1.22767,0.42333 -3.51367,-0.59267 -3.76767,1.31233c0.508,-0.16933 1.82033,-1.27 2.24367,-0.762c0.16933,0.254 -0.127,0.59267 -0.08467,0.84667c0.254,0.67733 0.80433,0.42333 1.35467,0.33867c0,0 0,0 -0.04233,0c0.71967,-0.33867 0.635,-0.29633 0.97367,-0.889c0.127,-0.21167 0.29633,-0.762 0.46567,-0.889c0.55033,-0.508 0.635,-0.16933 1.016,0.21167c0.08467,0.127 0.93133,1.35467 0.635,1.31233c-1.016,-0.21167 -1.98967,-0.16933 -2.794,0.381c-0.508,0.29633 -0.97367,0.71967 -1.524,0.97367c-0.127,0.04233 -1.18533,0.127 -1.05833,-0.04233c0.16933,-0.254 0.80433,-0.42333 1.016,-0.71967c-0.635,-0.254 -1.18533,0.33867 -1.73567,0.71967c-0.381,0.16933 -0.55033,0.42333 -0.762,0.762l25.273,0c-4.064,-11.98033 -15.40933,-20.574 -28.78667,-20.574c-16.764,0 -30.39533,13.63133 -30.39533,30.39533c0,16.80633 13.63133,30.43767 30.39533,30.43767c7.28133,0 13.97,-2.58233 19.21933,-6.858l-13.081,0l0,0c-0.08467,0.08467 -0.16933,0.127 -0.254,0.21167c-0.16933,0.21167 -0.254,0.84667 -0.381,1.10067c-0.08467,0.21167 -0.635,0.889 -0.635,1.05833c0,0.127 0.21167,0.29633 0.381,0.46567c-1.016,0.21167 -2.032,0.33867 -3.048,0.42333c0.21167,-0.254 0.254,-0.46567 -0.381,-0.46567c0.16933,-0.46567 0.55033,-0.71967 0.71967,-1.143c0.08467,-0.21167 0,-0.29633 0.08467,-0.508c0.21167,-0.67733 0.127,-0.42333 0,-0.97367c0,-0.04233 -0.04233,-0.08467 -0.04233,-0.16933l-14.68967,0l0,-25.48467c-0.16933,-0.127 -0.33867,-0.29633 -0.46567,-0.508c-0.67733,-0.889 -1.43933,-1.82033 -2.032,-2.75167c-0.21167,-0.381 -0.16933,-0.59267 -0.508,-0.93133c-0.381,-0.33867 -0.80433,-0.508 -1.18533,-0.84667c-1.22767,-1.10067 -1.48167,-2.62467 -1.31233,-4.23333c0.04233,-0.508 0.21167,-0.93133 0.127,-1.43933c-0.08467,-0.42333 -0.29633,-0.80433 -0.59267,-1.10067l-0.381,-0.55033c-0.29633,-0.508 -0.508,-0.97367 -0.97367,-1.35467c-0.508,-0.42333 -1.016,-0.80433 -1.56633,-1.18533c2.87867,-3.556 6.604,-6.35 10.87967,-8.128c0.04233,0.254 0.127,0.46567 0.254,0.635c0.33867,0.55033 0.67733,0.508 1.35467,0.635c-0.08467,0.80433 -1.016,0.80433 -1.60867,0.71967c-0.762,-0.08467 -1.56633,-0.33867 -2.20133,0.29633c0.33867,0.21167 1.35467,1.05833 1.18533,0.21167c0.762,-0.04233 1.43933,-0.08467 2.159,0c0.254,0.04233 1.22767,0.381 1.48167,0.21167c0.08467,-0.04233 0.21167,-0.59267 0.33867,-0.762c-0.21167,0 -0.42333,-0.08467 -0.635,-0.08467c0.46567,-0.59267 0.93133,-0.127 1.524,0.16933c-0.635,0.381 -0.254,1.35467 0.381,0.55033c0.508,-0.635 -0.127,-1.05833 -0.80433,-1.43933c0.67733,-0.84667 1.10067,-0.93133 1.73567,0.04233c0.08467,-0.59267 0.55033,-0.381 1.05833,-0.33867l0,-0.127c-0.21167,0 -0.46567,-0.127 -0.67733,-0.08467c0.508,-0.80433 0.21167,-1.016 0.93133,-1.27zm10.83733,13.97c0.04233,0 0.08467,0 0.08467,-0.04233c0,0.04233 -0.04233,0.04233 -0.08467,0.04233zm-20.73855,7.29213c0.33867,0.59267 0.80433,1.143 1.22767,1.69333c0.08467,0.16933 0.16933,0.29633 0.21167,0.381l0,-1.35467l0,0c-0.59267,-0.71967 -0.762,-1.31233 -1.69333,-1.524l0,0c-0.08467,-0.04233 0.254,0.762 0.254,0.80433zm12.43559,24.78807l0,-13.97c0,-1.60867 0.42333,-2.96333 1.35467,-4.02167c0.889,-1.05833 2.032,-1.56633 3.38679,-1.56633c2.83633,0 4.23333,1.94733 4.23333,5.92667l0,13.63133l7.112,0l0,-14.986c0,-6.731 -2.70933,-10.07533 -8.128,-10.07533c-3.47133,0 -6.09613,1.48167 -7.87413,4.48733l-0.08467,0l0,-3.89467l-7.15433,0l0,24.46867l7.15433,0zm16.52113,-12.95696l-0.08467,0l0,0.93133l0.08467,0c0.21167,0.59267 0.46567,1.016 0.635,1.27l7.40833,10.71033l6.604,0l-9.48267,-12.78467l0,0l8.763,-11.68387l-6.223,0l-7.02733,10.24454c-0.21167,0.381 -0.46567,0.80433 -0.67733,1.31233zm16.78093,-4.19371c0.67733,0.762 1.69333,1.1855 2.70933,1.1855c1.016,0 2.032,-0.4235 2.70933,-1.1855c0.71967,-0.762 1.10067,-1.73567 1.10067,-2.921c0,-1.143 -0.381,-2.07433 -1.05833,-2.83633c-0.71967,-0.762 -1.60867,-1.143 -2.75167,-1.143c-1.10067,0 -1.98967,0.381 -2.70933,1.10067c-0.71967,0.762 -1.05833,1.73567 -1.05833,2.87867c0,1.18533 0.33867,2.11667 1.05833,2.921zm4.87426,17.00674l0,-14.01233l-4.064,0l0,14.01233l4.064,0z" fill="#1A7BFF"/>
    </g>
   </g>
  </g>
 </g>
</svg>