<svg width="128" height="128" xmlns="http://www.w3.org/2000/svg">
 <g>
  <title>Layer 1</title>
  <rect id="svg_2" height="128" width="128" y="0" x="0" stroke="null" fill="#ffffff"/>
  <path fill="#ff3333" d="m64,105.47953c-22.97966,0 -41.6095,-18.57177 -41.6095,-41.47953c0,-22.90776 18.62984,-41.47953 41.6095,-41.47953s41.6095,18.57177 41.6095,41.47953c0,22.90776 -18.62708,41.47953 -41.6095,41.47953zm25.58734,-41.17258c0.07743,-6.50676 -3.68338,-13.45596 -8.63051,-18.43627c-8.63051,-8.53925 -20.90015,-8.08298 -30.20816,-3.68615c8.01385,0.6692 12.66508,3.35708 17.26102,7.98896c4.68995,4.62635 6.16386,8.15764 6.16662,14.13346l-8.01661,0l15.41379,17.20571l15.41103,-17.20571l-7.39718,0zm-51.16915,-0.61113c-0.08019,6.50676 3.68338,13.45596 8.62774,18.43627c8.63327,8.53925 20.90015,8.08298 30.20816,3.68615c-8.01385,-0.6692 -12.66232,-3.35708 -17.26102,-7.98896c-4.68719,-4.62635 -6.16386,-8.15764 -6.16386,-14.13346l8.01385,0l-15.41103,-17.20848l-15.41103,17.20571l7.39718,0l0,0.00277l0.00001,0z" id="svg_1" stroke="null"/>
 </g>

</svg>