<svg width="128" height="128" xmlns="http://www.w3.org/2000/svg" version="1.0" preserveAspectRatio="xMidYMid meet">
 <g>
  <title>Layer 1</title>
  <rect fill="#dd2424" x="0" y="0" width="128" height="128" id="svg_11"/>
  <g stroke="null" fill="white" id="svg_10">
   <path stroke="null" d="m19.16329,26.99114c0,0.10697 4.75981,8.07563 10.58924,17.75569l10.58924,17.64873l23.79905,0.10697l23.74556,0.16044l10.26835,-17.00696c5.66898,-9.35918 10.42879,-17.4348 10.64272,-17.91613c0.32089,-0.85569 -0.96266,-0.90918 -17.75569,-0.80222l-18.13006,0.16044l-8.55696,15.40253c-4.70632,8.50347 -8.9848,15.66994 -9.51962,15.99082c-1.9788,1.06962 -7.32689,-1.60443 -7.32689,-3.74367c0,-0.42785 3.15538,-6.79209 6.95253,-14.01202c3.85063,-7.27342 6.95253,-13.37025 6.95253,-13.58417c0,-0.16044 -9.51962,-0.32089 -21.125,-0.32089c-11.60538,0 -21.125,0.05348 -21.125,0.16044l-0.00002,0z" id="svg_2"/>
   <path stroke="null" d="m42.37404,65.65791c0.16044,0.48133 0.32089,0.96266 0.32089,1.06962c0,0.10697 9.5731,0.21392 21.28544,0.21392c20.64367,0 21.28544,-0.05348 21.92721,-1.06962c0.64177,-1.06962 0.53481,-1.06962 -21.60633,-1.06962c-20.05537,0 -22.24809,0.10697 -21.92721,0.85569l0,0.00001z" id="svg_3"/>
   <path stroke="null" d="m44.94113,69.72247c0.21392,0.53481 4.65285,0.74874 19.25316,0.85569c16.57911,0.10697 19.09271,0 19.36012,-0.69525c0.26741,-0.69525 -2.03228,-0.80222 -19.25316,-0.80222c-15.40253,0 -19.52056,0.16044 -19.36012,0.64177l0,0.00001z" id="svg_4"/>
   <path stroke="null" d="m47.08037,73.46613c0.21392,0.53481 4.17152,0.74874 16.84652,0.85569c14.27942,0.10697 16.68607,0 17.27436,-0.69525c0.5883,-0.69525 -1.28355,-0.80222 -16.84652,-0.80222c-13.74462,0 -17.4348,0.16044 -17.27436,0.64177l0,0.00001z" id="svg_5"/>
   <path stroke="null" d="m50.50315,79.08164c0.80222,1.44399 1.71139,2.99493 2.03228,3.47626c0.53481,0.85569 1.65791,0.96266 11.65885,0.96266l11.07057,0l1.87183,-3.15538c1.06962,-1.71139 1.92532,-3.26234 1.92532,-3.47626c0,-0.16044 -6.73861,-0.32089 -15.02816,-0.32089l-15.02816,0l1.49747,2.51361l-0.00001,0z" id="svg_6"/>
   <path stroke="null" d="m54.78163,85.55284c-0.10697,0.21392 -0.05348,0.69525 0.16044,1.06962c0.32089,0.48133 2.72753,0.64177 9.46613,0.53481c8.07563,-0.16044 9.03829,-0.26741 9.19874,-1.1231c0.16044,-0.85569 -0.53481,-0.90918 -9.19874,-0.90918c-5.13418,0 -9.46613,0.21392 -9.62658,0.42785l0.00001,-0.00001z" id="svg_7"/>
   <path stroke="null" d="m56.59998,89.29651c0,1.33702 1.60443,1.71139 7.86171,1.71139c3.63671,0 6.57817,-0.10697 6.57817,-0.21392c0,-0.10697 0.16044,-0.5883 0.32089,-1.06962c0.26741,-0.74874 -0.53481,-0.85569 -7.21994,-0.85569c-4.17152,0 -7.54082,0.21392 -7.54082,0.42785z" id="svg_8"/>
   <path stroke="null" d="m59.27403,93.46803c0,0.64177 4.43892,7.70127 4.81329,7.70127c0.26741,0 1.55095,-1.81835 2.88797,-4.01107l2.46013,-4.01107l-5.0807,0c-2.78101,0 -5.0807,0.16044 -5.0807,0.32089l0,-0.00001z" id="svg_9"/>
  </g>
 </g>

</svg>