<svg width="128" height="128" xmlns="http://www.w3.org/2000/svg" preserveAspectRatio="xMidYMid meet" version="1.0">
 <title>epic</title>

 <g>
  <title>Layer 1</title>
  <rect id="svg_7" height="128" width="128" y="0" x="0" fill="#ffffff"/>
  <g stroke="null" id="svg_5">
   <path stroke="null" id="svg_2" d="m26.36523,13.46497c-1.92029,0.21219 -3.27829,0.78509 -4.22253,1.77176c-0.96545,1.00789 -1.45348,2.2704 -1.66567,4.25435c-0.14853,1.43226 -0.14853,71.87843 0.01061,73.52288c0.20158,2.21736 0.5623,3.14037 1.62323,4.09521c0.81692,0.74266 1.78237,1.23069 5.63357,2.8327c1.75054,0.73205 4.66812,1.94151 6.47171,2.70539c1.8142,0.75326 6.55659,2.74782 10.55632,4.41349c3.99973,1.67628 7.64935,3.20403 8.11616,3.40561c0.46681,0.19097 1.03972,0.43498 1.27312,0.53047c3.53292,1.48531 5.23042,2.19614 6.45049,2.72661c2.13248,0.92301 3.1722,1.09276 4.65751,0.77448c0.39255,-0.07427 1.77176,-0.59412 3.07672,-1.14581c1.30495,-0.5623 3.41621,-1.45348 4.69995,-1.98395c6.1216,-2.56747 11.787,-4.93335 15.11834,-6.33379c2.01578,-0.84875 3.92546,-1.64445 4.24375,-1.78237c2.4932,-1.0185 10.46083,-4.37106 11.35202,-4.7636c1.88847,-0.83814 2.88575,-1.76115 3.395,-3.10854c0.49864,-1.32617 0.47742,0.05305 0.47742,-39.12733c0,-35.19126 -0.01061,-37.06911 -0.19097,-37.92847c-0.10609,-0.49864 -0.37133,-1.28373 -0.59412,-1.75054c-0.9018,-1.88847 -2.51442,-2.8327 -5.31529,-3.12976c-1.28373,-0.12731 -73.95787,-0.1167 -75.16734,0.02122zm64.0275,13.33597c2.1537,0.64717 3.43743,1.97334 4.05278,4.24375c0.21219,0.75326 0.23341,1.12459 0.27584,5.65479l0.04244,4.85909l-2.92818,0l-2.92818,0l0,-4.01034c0,-2.19614 -0.05305,-4.1907 -0.10609,-4.41349c-0.1167,-0.51986 -0.39255,-0.9018 -0.85936,-1.17764c-0.43498,-0.25462 -2.32345,-0.36072 -3.03428,-0.16975c-0.55169,0.14853 -1.07155,0.58351 -1.26251,1.03972c-0.2228,0.50925 -0.2228,26.29 0,26.79925c0.18036,0.44559 0.70022,0.88058 1.20947,1.02911c0.51986,0.13792 2.30223,0.13792 2.8327,-0.01061c0.53047,-0.14853 1.06094,-0.679 1.20947,-1.20947c0.07427,-0.27584 0.1167,-2.02639 0.1167,-5.07128l0,-4.63629l2.92818,0l2.91757,0l-0.03183,5.37895c-0.04244,5.14554 -0.05305,5.43199 -0.27584,6.23831c-0.49864,1.82481 -1.41105,3.04489 -2.8327,3.77693c-1.38983,0.73205 -1.80359,0.78509 -5.56992,0.78509c-2.91757,0 -3.42682,-0.02122 -4.03156,-0.19097c-2.30223,-0.64717 -3.67084,-2.01578 -4.31801,-4.31801c-0.18036,-0.65778 -0.19097,-1.45348 -0.19097,-15.17139c0,-16.08379 -0.05305,-14.93798 0.70022,-16.50817c0.5623,-1.19886 1.83542,-2.34467 3.0555,-2.74782c1.30495,-0.42437 1.77176,-0.46681 5.05006,-0.43498c2.93879,0.02122 3.24647,0.04244 3.97851,0.26523zm-44.02886,2.716l0,2.70539l-3.60718,0l-3.60718,0l0,5.46382l0,5.46382l3.50109,0l3.50109,0l0,2.70539l0,2.70539l-3.50109,0l-3.50109,0l0,5.83515l0,5.83515l3.69206,0.02122l3.68145,0.03183l0.02122,2.67356l0.02122,2.68417l-6.67329,0l-6.6839,0l0,-19.41513l0,-19.41513l6.5778,0l6.5778,0l0,2.70539zm14.503,-2.50381c2.62051,0.54108 4.20131,2.12187 4.77421,4.78482c0.16975,0.81692 0.19097,1.50653 0.19097,7.37351c0,5.84576 -0.02122,6.55659 -0.19097,7.37351c-0.42437,1.98395 -1.46409,3.44804 -2.98123,4.1907c-1.33678,0.65778 -1.73994,0.72144 -4.69995,0.77448l-2.68417,0.04244l0,7.04462l0,7.04462l-2.97062,0l-2.97062,0l0,-19.41513l0,-19.41513l5.28346,0c4.75299,0 5.36834,0.02122 6.24891,0.20158zm13.52694,19.0332c0.02122,10.57753 0.02122,19.31965 0,19.41513c-0.03183,0.16975 -0.28645,0.18036 -2.97062,0.15914l-2.93879,-0.03183l-0.03183,-19.39392l-0.02122,-19.38331l2.97062,0l2.97062,0l0.02122,19.23477zm-33.46193,28.99539c0.93362,0.19097 1.70811,0.50925 2.42954,1.0185c0.27584,0.19097 0.54108,0.38194 0.60473,0.42437c0.05305,0.03183 -0.31828,0.57291 -0.82753,1.18825l-0.92301,1.12459l-0.48803,-0.32889c-0.77448,-0.53047 -1.41105,-0.73205 -2.34467,-0.73205c-0.97606,0 -1.50653,0.21219 -2.11126,0.81692c-0.679,0.679 -0.92301,1.30495 -0.92301,2.41893c-0.01061,0.81692 0.03183,1.03972 0.26523,1.53836c0.36072,0.74266 0.84875,1.2413 1.55958,1.57019c0.50925,0.23341 0.679,0.25462 1.53836,0.21219c0.65778,-0.03183 1.10337,-0.1167 1.37922,-0.24402l0.39255,-0.20158l0,-0.72144l0,-0.72144l-1.16703,0l-1.16703,0l0,-1.22008l0,-1.22008l2.65234,0l2.65234,0l0,2.67356l0,2.68417l-0.61534,0.39255c-1.48531,0.95484 -2.77965,1.358 -4.43471,1.358c-1.86725,0 -3.40561,-0.60473 -4.60446,-1.80359c-1.18825,-1.17764 -1.6975,-2.47198 -1.6975,-4.25435c0,-1.78237 0.53047,-3.08732 1.73994,-4.29679c1.55958,-1.55958 3.7345,-2.1537 6.08977,-1.67628zm51.05225,0.10609c0.73205,0.18036 2.00517,0.76387 2.42954,1.10337c0.28645,0.24402 0.31828,0.18036 -0.70022,1.61262l-0.58351,0.80631l-0.76387,-0.41377c-1.36861,-0.73205 -2.9494,-0.92301 -3.46926,-0.40316c-0.14853,0.14853 -0.20158,0.32889 -0.18036,0.60473c0.03183,0.35011 0.08487,0.42437 0.50925,0.62595c0.26523,0.12731 1.05033,0.38194 1.75054,0.5623c2.67356,0.68961 3.70267,1.45348 3.98912,3.00245c0.20158,1.1352 -0.25462,2.56747 -1.03972,3.26768c-1.07155,0.93362 -3.00245,1.34739 -4.91213,1.05033c-1.38983,-0.2228 -2.8327,-0.82753 -3.6284,-1.51714l-0.40316,-0.3395l0.75326,-0.9018c1.09276,-1.31556 0.97606,-1.2413 1.38983,-0.92301c0.96545,0.74266 2.4932,1.19886 3.63901,1.10337c0.50925,-0.05305 0.679,-0.1167 0.86997,-0.3395c0.41377,-0.46681 0.28645,-0.92301 -0.3395,-1.2413c-0.16975,-0.09548 -0.98667,-0.3395 -1.80359,-0.55169c-1.84603,-0.48803 -2.66295,-0.86997 -3.22525,-1.50653c-0.57291,-0.65778 -0.7957,-1.34739 -0.73205,-2.31284c0.12731,-1.90969 1.43226,-3.16159 3.63901,-3.50109c0.53047,-0.07427 2.07944,0.04244 2.81148,0.21219zm-38.14066,0.46681c0.12731,0.31828 1.23069,2.91757 2.44015,5.7821c1.20947,2.85392 2.21736,5.26224 2.24918,5.3259c0.04244,0.10609 -0.31828,0.13792 -1.62323,0.13792l-1.68689,0l-0.42437,-1.09276l-0.42437,-1.08216l-2.29162,-0.03183l-2.30223,-0.02122l-0.44559,1.11398l-0.44559,1.11398l-1.63384,0l-1.63384,0l0.13792,-0.35011c0.08487,-0.18036 1.11398,-2.63112 2.29162,-5.43199c1.18825,-2.80087 2.24918,-5.31529 2.36589,-5.60174l0.2228,-0.50925l1.4747,0.03183l1.48531,0.03183l0.24402,0.58351zm10.71546,1.75054c0.76387,1.2519 1.40044,2.2704 1.43226,2.2704c0.05305,0.01061 0.30767,-0.40316 2.00517,-3.15098l0.86997,-1.40044l1.64445,0l1.63384,0l0,5.8882l0,5.8882l-1.53836,0l-1.53836,0l0,-3.41621c0,-2.88575 -0.02122,-3.395 -0.14853,-3.26768c-0.07427,0.08487 -0.74266,1.10337 -1.49592,2.25979c-0.74266,1.14581 -1.37922,2.11126 -1.42165,2.13248c-0.04244,0.03183 -0.74266,-0.98667 -1.55958,-2.24918l-1.4747,-2.30223l-0.03183,3.42682l-0.02122,3.41621l-1.53836,0l-1.53836,0l0,-5.8882l0,-5.8882l1.67628,0l1.66567,0.01061l1.37922,2.2704zm19.25599,-0.93362l0,1.358l-3.09793,0l-3.10854,0l-0.03183,0.92301l-0.03183,0.93362l2.82209,0l2.81148,0l0,1.27312l0,1.27312l-2.77965,0.02122l-2.79026,0.03183l0,0.95484l0,0.95484l3.16159,0.03183l3.15098,0.02122l0,1.32617l0,1.32617l-4.72117,0l-4.72117,0l0,-5.8882l0,-5.8882l4.66812,0l4.66812,0l0,1.34739zm-5.7821,25.33516c-1.63384,0.54108 -5.50626,1.82481 -8.6148,2.85392l-5.64418,1.85664l-6.02612,-2.06883c-3.31012,-1.1352 -6.92791,-2.3765 -8.0419,-2.75843c-1.10337,-0.37133 -2.11126,-0.73205 -2.22797,-0.78509c-0.12731,-0.05305 6.60963,-0.09548 16.6567,-0.08487l16.86889,0l-2.97062,0.98667z"/>
   <path stroke="null" id="svg_3" d="m55.27574,39.15216l0,7.17193l1.62323,-0.03183c1.90969,-0.04244 2.29162,-0.16975 2.72661,-0.94423l0.26523,-0.46681l0,-5.72906l0,-5.72906l-0.28645,-0.48803c-0.4562,-0.76387 -0.78509,-0.88058 -2.70539,-0.92301l-1.62323,-0.04244l0,7.18254z"/>
   <path stroke="null" id="svg_4" d="m51.43515,80.34832c-0.3395,0.85936 -0.61534,1.62323 -0.61534,1.6975c0,0.09548 0.32889,0.12731 1.27312,0.12731c0.70022,0 1.27312,-0.03183 1.27312,-0.07427c0,-0.10609 -1.18825,-3.15098 -1.26251,-3.23586c-0.03183,-0.03183 -0.3395,0.63656 -0.66839,1.48531z"/>
  </g>
 </g>
</svg>