<svg width="128" height="128" xmlns="http://www.w3.org/2000/svg" fill="none">
 <g>
  <title>Layer 1</title>
  <rect width="128" height="128" fill="black" id="svg_2"/>
  <path fill-rule="evenodd" clip-rule="evenodd" d="m64.0118,24c-22.659,0 -41.0118,18.3528 -41.0118,41.0118c0,18.1477 11.7396,33.4758 28.0418,38.9102c2.0506,0.359 2.8195,-0.872 2.8195,-1.948c0,-0.974 -0.0512,-4.2041 -0.0512,-7.6388c-10.3042,1.8968 -12.97,-2.512 -13.7902,-4.8189c-0.4614,-1.1791 -2.4607,-4.8189 -4.2037,-5.7929c-1.4354,-0.769 -3.486,-2.6658 -0.0513,-2.7171c3.2297,-0.0512 5.5366,2.9734 6.3056,4.2037c3.691,6.2031 9.5865,4.4601 11.9446,3.3835c0.3589,-2.6658 1.4355,-4.46 2.6145,-5.4853c-9.1251,-1.0253 -18.6603,-4.5626 -18.6603,-20.2496c0,-4.46 1.5892,-8.151 4.2037,-11.0219c-0.4101,-1.0253 -1.8455,-5.229 0.4101,-10.8681c0,0 3.4347,-1.0765 11.2782,4.2037c3.281,-0.9227 6.767,-1.3841 10.253,-1.3841c3.486,0 6.972,0.4614 10.2529,1.3841c7.8435,-5.3315 11.2783,-4.2037 11.2783,-4.2037c2.2556,5.6391 0.8202,9.8428 0.4101,10.8681c2.6145,2.8709 4.2037,6.5106 4.2037,11.0219c0,15.7383 -9.5865,19.2243 -18.7116,20.2496c1.4866,1.2816 2.7683,3.7423 2.7683,7.5872c0,5.4853 -0.0513,9.8936 -0.0513,11.2786c0,1.076 0.769,2.358 2.8196,1.948c8.1415,-2.749 15.2162,-7.9814 20.2282,-14.9613c5.0115,-6.98 7.7085,-15.3559 7.7115,-23.9489c0,-22.659 -18.3533,-41.0118 -41.0122,-41.0118z" fill="white" id="svg_3"/>
 </g>

</svg>