<svg width="128" height="128" xmlns="http://www.w3.org/2000/svg" fill="none">
 <defs>
  <linearGradient id="paint0_linear_961_3096" x1="0.82119" y1="0.17881" x2="0.14645" y2="0.85355">
   <stop stop-color="#3967FF"/>
   <stop offset="1" stop-color="#B500FE"/>
  </linearGradient>
  <linearGradient id="paint1_linear_961_3096" x1="-0.03862" y1="1.03851" x2="0.76575" y2="0.23348">
   <stop stop-color="#3967FF"/>
   <stop offset="1" stop-color="#B500FE"/>
  </linearGradient>
  <linearGradient id="paint2_linear_961_3096" x1="0.12914" y1="0.86937" x2="0.74611" y2="0.25292">
   <stop stop-color="#1C98FF"/>
   <stop offset="1" stop-color="#574AE4"/>
  </linearGradient>
  <linearGradient id="paint3_linear_961_3096" x1="-0.10014" y1="0.39304" x2="1.01785" y2="0.31075">
   <stop stop-color="#EF478F"/>
   <stop offset="1" stop-color="#AE48C0"/>
  </linearGradient>
  <linearGradient id="paint4_linear_961_3096" x1="-0.10014" y1="0.39304" x2="1.01785" y2="0.31075">
   <stop stop-color="#FF4695"/>
   <stop offset="1" stop-color="#CC34E7"/>
  </linearGradient>
 </defs>
 <g>
  <title>Layer 1</title>
  <g id="svg_8" stroke="null">
   <rect width="128" height="128" fill="white" id="svg_1" stroke="null" y="0" x="0"/>
   <path d="m34.92576,92.07576c-15.78216,-15.78216 -15.78216,-41.36936 -0.00152,-57.15c15.78216,-15.78216 41.36936,-15.78216 57.15152,0c15.78064,15.78064 15.78064,41.36784 -0.00152,57.15c-15.78064,15.78064 -41.36784,15.78064 -57.14848,0zm10.23429,-10.23442c10.12952,10.12965 26.55037,10.12965 36.67989,0c10.12952,-10.12952 10.13104,-26.55176 0.0014,-36.68128c-10.12952,-10.12952 -26.55176,-10.13104 -36.68268,0c-10.13104,10.13092 -10.12965,26.55037 0.0014,36.68128l-0.00001,0z" fill="url(#paint0_linear_961_3096)" id="svg_2" stroke="null"/>
   <path d="m57.93638,72.23049c-1.96901,0.64884 -3.84404,-1.20701 -3.21539,-3.18249l14.494,-45.55299c8.50189,1.29438 16.76159,5.31914 22.83295,11.40968c6.09067,6.07136 10.16279,13.80693 11.45705,22.30882l-45.56862,15.01699l0.00001,-0.00001z" fill="url(#paint1_linear_961_3096)" id="svg_3" stroke="null"/>
   <path fill-rule="evenodd" clip-rule="evenodd" d="m66.85864,59.8758c-2.15671,-2.18211 -5.08114,-3.43446 -8.1487,-3.48945l10.50506,-32.89122c8.50189,1.29438 16.83512,5.24535 22.90648,11.33602c6.09067,6.07136 10.07542,13.93469 11.36967,22.43645l-33.14306,11.04684c0.01194,-1.56858 -0.29058,-3.12356 -0.88963,-4.57314c-0.59906,-1.4497 -1.4826,-2.76454 -2.59842,-3.86702l-0.0014,0.00152z" fill="url(#paint2_linear_961_3096)" id="svg_4" stroke="null"/>
   <path d="m63.23419,63.50038c-2.78955,-2.78968 -7.31253,-2.78968 -10.10221,0c-2.78968,2.78968 -2.78968,7.31266 0,10.10234c2.78968,2.78955 7.31266,2.78955 10.10221,0c2.78968,-2.78968 2.78968,-7.31266 0,-10.10234z" fill="url(#paint3_linear_961_3096)" id="svg_5" stroke="null"/>
   <path d="m63.23419,63.50038c-2.78955,-2.78968 -7.31253,-2.78968 -10.10221,0c-2.78968,2.78968 -2.78968,7.31266 0,10.10234c2.78968,2.78955 7.31266,2.78955 10.10221,0c2.78968,-2.78968 2.78968,-7.31266 0,-10.10234z" fill="url(#paint4_linear_961_3096)" id="svg_6" stroke="null"/>
  </g>
 </g>
</svg>