<svg width="128" height="128" xmlns="http://www.w3.org/2000/svg" preserveAspectRatio="xMidYMid meet" version="1.0">

 <g>
  <title>Layer 1</title>
  <rect id="svg_4" height="128" width="128" y="0" x="0" stroke="null" fill="#000000"/>
  <rect id="svg_5" height="88" width="88" y="20" x="20" stroke="null" fill="#ffffff"/>
  <path stroke="null" id="svg_2" d="m12.49999,64l0,51.5l51.5,0l51.5,0l0,-51.5l0,-51.5l-51.5,0l-51.5,0l0,51.5zm14.45614,-1.80702c0,20.4193 -0.3614,24.39474 -2.71053,24.39474c-2.34912,0 -2.71053,-3.97544 -2.71053,-24.39474c0,-20.4193 0.3614,-24.39474 2.71053,-24.39474c2.34912,0 2.71053,3.97544 2.71053,24.39474zm28.91228,-20.7807c0,3.07193 -1.26491,3.61404 -8.13158,3.61404c-8.13158,0 -8.13158,0 -8.13158,6.32456c0,6.14386 0.1807,6.32456 7.22807,6.32456c5.96316,0 7.22807,0.54211 7.22807,3.61404c0,3.07193 -1.26491,3.61404 -7.22807,3.61404l-7.22807,0l0,7.22807l0,7.22807l8.13158,0c6.86667,0 8.13158,0.54211 8.13158,3.61404c0,3.25263 -1.26491,3.61404 -10.84211,3.61404l-10.84211,0l0,-24.39474l0,-24.39474l10.84211,0c9.57719,0 10.84211,0.3614 10.84211,3.61404zm25.29825,0c0,3.07193 -1.26491,3.61404 -8.13158,3.61404c-8.13158,0 -8.13158,0 -8.13158,6.32456c0,6.14386 0.1807,6.32456 7.22807,6.32456c5.96316,0 7.22807,0.54211 7.22807,3.61404c0,3.07193 -1.26491,3.61404 -7.22807,3.61404l-7.22807,0l0,7.22807l0,7.22807l8.13158,0c6.86667,0 8.13158,0.54211 8.13158,3.61404c0,3.25263 -1.26491,3.61404 -10.84211,3.61404l-10.84211,0l0,-24.39474l0,-24.39474l10.84211,0c9.57719,0 10.84211,0.3614 10.84211,3.61404zm25.29825,0c0,3.07193 -1.26491,3.61404 -8.13158,3.61404c-8.13158,0 -8.13158,0 -8.13158,6.32456c0,6.14386 0.1807,6.32456 7.22807,6.32456c5.96316,0 7.22807,0.54211 7.22807,3.61404c0,3.07193 -1.26491,3.61404 -7.22807,3.61404l-7.22807,0l0,7.22807l0,7.22807l8.13158,0c6.86667,0 8.13158,0.54211 8.13158,3.61404c0,3.25263 -1.26491,3.61404 -10.84211,3.61404l-10.84211,0l0,-24.39474l0,-24.39474l10.84211,0c9.57719,0 10.84211,0.3614 10.84211,3.61404z"/>
 </g>
</svg>