<svg width="128" height="128" xmlns="http://www.w3.org/2000/svg" version="1.1" class="logo-svg-nonIndex">
 <g>
  <title>Layer 1</title>
  <rect id="svg_2" height="128" width="128" y="0" x="0" stroke="null" fill="#ffffff"/>
  <path stroke="null" fill="#00DC5A" d="m233.44001,46.99364zm-169.41091,32.43817c0.01084,0.16742 0.15319,0.29565 0.32083,0.28928l7.65937,0c0.16818,0.00643 0.31138,-0.12142 0.32372,-0.28928l0,-34.31689c-0.01234,-0.16786 -0.15553,-0.29572 -0.32372,-0.28928l-7.65937,0c-0.16764,-0.00637 -0.30998,0.12187 -0.32083,0.28928l0,34.31689zm-56.31808,0c0.01234,0.16786 0.15553,0.29572 0.32372,0.28903l7.65937,0c0.16764,0.00662 0.30998,-0.12162 0.32083,-0.28903l0,-21.60522c-0.01084,-0.16742 -0.15319,-0.29565 -0.32083,-0.28903l-7.65937,0c-0.16874,-0.00824 -0.31287,0.12044 -0.32372,0.28903l0,21.60522zm51.26289,-5.60146l-3.78922,-3.04063c-0.07608,-0.06164 -0.12905,-0.14721 -0.1503,-0.24279c-0.02351,-0.098 -0.00905,-0.20126 0.04046,-0.28903c4.25212,-8.00326 1.83119,-17.92275 -5.62977,-23.06734c-7.46096,-5.14459 -17.59309,-3.88088 -23.56184,2.93871c-5.96875,6.81959 -5.87903,17.02983 0.20864,23.74348c6.08767,6.71365 16.24044,7.79912 23.60984,2.52421c0.15051,-0.11369 0.35819,-0.11369 0.5087,0l4.0638,3.26318c0.06805,0.05336 0.15461,0.07727 0.2404,0.06641c0.08579,-0.01086 0.16366,-0.05559 0.21627,-0.12422l4.29503,-5.31532c0.11083,-0.14073 0.08761,-0.34447 -0.05203,-0.45667zm-17.81888,-1.62437c-5.54076,1.01162 -10.89654,-2.78339 -11.91972,-8.44554c-1.02318,-5.66216 2.6591,-11.08153 8.20854,-12.08447c5.54943,-1.00294 10.88787,2.78339 11.91972,8.44554c1.03185,5.66216 -2.6591,11.07285 -8.20854,12.08447zm80.33383,-27.38901l-7.65937,0c-0.16764,-0.00638 -0.30998,0.12186 -0.32083,0.28928l0,34.32556c0.01084,0.16742 0.15319,0.29565 0.32083,0.28928l7.65937,0c0.16764,0.00638 0.30998,-0.12186 0.32083,-0.28928l0,-34.31689c-0.00301,-0.08204 -0.03852,-0.15952 -0.0987,-0.21536c-0.06018,-0.05584 -0.14009,-0.08546 -0.22213,-0.08259zm-109.62443,-0.68476c-2.68655,0 -4.86443,2.17788 -4.86443,4.86443c0,2.68655 2.17788,4.86443 4.86443,4.86443c2.68655,0 4.86443,-2.17788 4.86443,-4.86443c0,-1.29012 -0.5125,-2.52741 -1.42476,-3.43967c-0.91226,-0.91225 -2.14954,-1.42476 -3.43967,-1.42476zm97.5891,0.68476l-8.16518,0c-0.13641,-0.00094 -0.26354,0.0692 -0.33528,0.18523l-7.58423,13.47472c0,0 -0.05492,0.10116 -0.13006,0.10116l0,0c-0.07515,0 -0.13006,-0.10116 -0.13006,-0.10116l-7.58423,-13.47472c-0.07174,-0.11603 -0.19887,-0.18617 -0.33528,-0.18523l-8.16229,0c-0.13263,0.00073 -0.25396,0.07498 -0.31473,0.19287c-0.06077,0.11789 -0.05086,0.2598 0.0257,0.3681l12.13939,20.4144c0.11591,0.19709 0.1768,0.42168 0.17631,0.65032l0,12.93134c0.00159,0.19521 0.16029,0.35262 0.35551,0.35262l7.67672,0c0.19522,0 0.35392,-0.15741 0.35551,-0.35262l0,-12.93134c-0.00049,-0.22865 0.0604,-0.45323 0.17631,-0.65032l12.13939,-20.4144c0.07821,-0.11043 0.08694,-0.25568 0.02253,-0.37469c-0.06441,-0.119 -0.19079,-0.19112 -0.32601,-0.18629l0,0z" id="svg_1" xmlns="http://www.w3.org/2000/svg"/>
 </g>

</svg>