<svg width="128" height="128" xmlns="http://www.w3.org/2000/svg" preserveAspectRatio="xMidYMid meet" version="1.0">
 <g>
  <title>Layer 1</title>
  <g id="svg_1" stroke="null">
   <path id="svg_2" fill="#004CA0" d="m54.56709,17.48279c-9.28702,2.13428 -16.84354,6.11444 -23.41944,12.34424c-11.65204,11.01752 -17.07427,27.63033 -14.01706,42.91642c1.44208,7.49884 4.03784,13.38254 8.59482,19.55466c6.5759,8.94092 15.45914,14.88231 26.53435,17.93953c5.01845,1.3844 18.57404,1.55745 23.07334,0.28842c17.70879,-4.90309 30.11071,-17.01659 35.30222,-34.37928c1.44208,-4.96077 1.44208,-19.38161 -0.05768,-24.22701c-4.78772,-15.63219 -15.28609,-26.99581 -30.05303,-32.53342c-7.44115,-2.7688 -18.45868,-3.57637 -25.95751,-1.90355l-0.00001,-0.00001zm18.45868,14.30547c6.63359,1.61513 13.67096,6.28749 17.88184,11.94046c6.28749,8.3064 8.47945,17.88184 6.28749,27.34191c-2.99953,13.09412 -12.69034,22.78493 -25.78446,25.78446c-16.38207,3.8071 -32.64878,-5.1915 -39.167,-21.63126c-1.0383,-2.59575 -1.26903,-4.38394 -1.26903,-10.90216c-0.05768,-8.24872 0.05768,-8.71019 3.34563,-15.57451c2.48038,-5.1915 9.11397,-11.82509 14.19011,-14.24779c5.76834,-2.71112 7.03737,-3.1149 11.30594,-3.57637c4.67235,-0.51915 8.47945,-0.28842 13.20949,0.86525l-0.00001,0.00001z" stroke="null"/>
   <path id="svg_3" fill="#004CA0" d="m56.87443,33.69182c-9.05629,2.24965 -16.90122,8.42177 -20.76601,16.38207c-5.13382,10.72911 -4.61467,20.99674 1.67282,30.97596l2.36502,3.74942l0.17305,-6.80664c0.05768,-3.69174 0.23073,-6.74895 0.3461,-6.74895c0.05768,0 2.48038,0.98062 5.30687,2.24965l5.13382,2.19197l0.17305,5.01845l0.17305,4.96077l-4.32625,0c-2.36502,0 -4.44162,0.23073 -4.61467,0.51915c-0.74988,1.15367 6.97969,6.11444 12.34424,7.90262c4.21089,1.44208 14.65157,1.49977 18.45868,0.11537c4.61467,-1.67282 5.99907,-2.36502 9.63312,-5.01845c4.21089,-2.99953 3.98015,-3.51869 -1.3844,-3.51869l-3.63405,0l0,-6.69127c0,-6.11444 -0.11537,-6.69127 -0.98062,-6.40285c-0.57683,0.17305 -3.69174,1.3844 -6.97969,2.7688l-5.8837,2.48038l-3.34563,-1.3844c-1.78818,-0.74988 -4.8454,-2.0766 -6.74895,-2.94185c-1.90355,-0.86525 -5.71065,-2.53807 -8.47945,-3.69174l-5.07614,-2.13428l0,-3.57637c0,-4.09552 -0.57683,-3.63405 8.94092,-6.80664c4.21089,-1.3844 6.51822,-1.78818 12.17119,-2.01892c7.9603,-0.3461 13.38254,0.51915 21.34284,3.34563l4.8454,1.78818l0,11.76741c0,6.46054 0.23073,11.76741 0.46147,11.76741c0.6922,0 3.74942,-4.4993 4.90309,-7.21042c4.03784,-9.57544 3.40332,-19.67003 -1.78818,-28.49558c-4.44162,-7.38347 -11.82509,-12.74802 -20.47759,-14.70926c-4.96077,-1.15367 -8.82555,-1.09598 -13.95937,0.17305l-0.00003,0.00002zm9.97922,6.97969c0.11537,1.09598 0.98062,1.96123 3.28795,3.40332c1.7305,0.98062 3.17258,2.0766 3.17258,2.36502c0,0.28842 -0.51915,0.86525 -1.15367,1.32672c-1.15367,0.80757 -1.09598,0.86525 1.09598,1.21135c1.21135,0.17305 3.461,0.86525 4.90309,1.49977c2.59575,1.09598 2.65343,1.15367 1.96123,2.71112c-0.40378,0.86525 -0.74988,1.7305 -0.80757,1.84587c-0.11537,0.05768 -1.7305,-0.3461 -3.63405,-1.0383c-8.24872,-2.82648 -14.99767,-2.82648 -23.01566,-0.05768c-3.461,1.21135 -4.03784,1.09598 -4.26857,-1.15367c-0.11537,-1.09598 0.23073,-1.61513 1.84587,-2.36502c1.09598,-0.57683 3.17258,-1.21135 4.55699,-1.44208c1.96123,-0.28842 2.30733,-0.51915 1.55745,-0.92293c-1.61513,-0.92293 -1.0383,-2.0766 1.96123,-4.03784c2.01892,-1.32672 2.88417,-2.24965 2.88417,-3.17258c0,-1.49977 0.74988,-1.90355 3.461,-1.7305c1.67282,0.11537 2.01892,0.3461 2.19197,1.55745l0.00001,-0.00002z" stroke="null"/>
   <path id="svg_4" fill="#004CA0" d="m60.22006,46.84362c-3.8071,0.51915 -1.7305,1.0383 4.1532,1.0383c3.28795,0 5.82602,-0.17305 5.59529,-0.40378c-0.51915,-0.51915 -7.38347,-0.98062 -9.74849,-0.63452z" stroke="null"/>
   <path id="svg_5" fill="#004CA0" d="m58.31651,61.20678c-3.40332,0.63452 -8.71019,2.19197 -8.9986,2.65343c-0.17305,0.23073 0.17305,0.63452 0.74988,0.86525c0.57683,0.17305 3.98015,1.7305 7.55652,3.40332l6.51822,3.05722l6.17212,-2.88417c3.40332,-1.61513 6.80664,-3.17258 7.55652,-3.461c1.90355,-0.74988 1.0383,-1.3844 -3.40332,-2.53807c-3.69174,-0.92293 -13.38254,-1.61513 -16.15134,-1.09598z" stroke="null"/>
  </g>
  <g id="svg_6">
   <rect id="svg_10" width="128" height="128" fill="#095D85" y="0" x="0"/>
   <path id="svg_11" fill-rule="evenodd" clip-rule="evenodd" d="m41,25c-6.0751,0 -11,4.9249 -11,11l0,56c0,6.0751 4.9249,11 11,11l46,0c6.0751,0 11,-4.9249 11,-11l0,-56c0,-6.0751 -4.9249,-11 -11,-11l-46,0zm2,9c-2.2091,0 -4,1.7909 -4,4l0,52c0,2.2091 1.7909,4 4,4l43,0c2.2091,0 4,-1.7909 4,-4l0,-52c0,-2.2091 -1.7909,-4 -4,-4l-43,0z" fill="url(#svg_8)"/>
   <path id="svg_12" fill-rule="evenodd" clip-rule="evenodd" d="m43,41c0,-1.6569 1.3431,-3 3,-3l37,0c1.6569,0 3,1.3431 3,3l0,9c0,1.1046 -0.8954,2 -2,2l-9,0l0,5l11,0l0,4.5l-11,0l0,5l9,0c1.1046,0 2,0.8954 2,2l0,18.5c0,1.6569 -1.3431,3 -3,3l-37,0c-1.6569,0 -3,-1.3431 -3,-3l0,-18.5c0,-1.1046 0.8954,-2 2,-2l9,0l0,-5l-11,0l0,-4.5l11,0l0,-5l-9,0c-1.1046,0 -2,-0.8954 -2,-2l0,-9zm8,2l27,0l0,4l-11.5,0l0,24l11.5,0l0,15l-27,0l0,-15l11.5,0l0,-24l-11.5,0l0,-4zm22,33l-17,0l0,4l17,0l0,-4z" fill="url(#svg_7)"/>
  </g>
 </g>
 <defs>
  <linearGradient id="svg_8" x1="0.5" y1="0" x2="0.5" y2="1">
   <stop stop-color="#FEFFFF"/>
   <stop offset="1" stop-color="#CDEEFF"/>
  </linearGradient>
  <linearGradient id="svg_7" x1="0.48837" y1="-0.25" x2="0.48837" y2="1.25">
   <stop stop-color="#FEFFFF"/>
   <stop offset="1" stop-color="#CDEEFF"/>
  </linearGradient>
 </defs>
</svg>