<svg width="128" height="128" xmlns="http://www.w3.org/2000/svg" p-id="2292" version="1.1" class="icon" t="1657293289193">
 <g>
  <title>Layer 1</title>
  <rect id="svg_4" height="128" width="128" y="0" x="0" stroke="null" fill="#ffffff"/>
  <g fill="#0D4273" stroke="null" id="svg_3">
   <path stroke="null" id="svg_1" p-id="2293" d="m63.84786,15.3146c-25.4077,0 -46.55542,19.77845 -48.38112,44.72972l26.01626,10.80207c2.28213,-1.52142 4.86854,-2.28213 7.75924,-2.28213l0.76071,0l11.56278,-16.88775l0,-0.15214c0,-10.04137 8.21566,-18.40917 18.40917,-18.40917s18.40917,8.21566 18.40917,18.40917s-8.21566,18.40917 -18.40917,18.40917l-0.45643,0l-16.58347,11.86707l0,0.60857c0,7.60709 -6.23782,13.84491 -13.84491,13.84491c-6.69424,0 -12.32349,-4.86854 -13.54063,-11.10636l-18.56131,-7.91138c5.78139,20.38701 24.64699,35.44906 46.8597,35.44906c26.92912,0 48.68541,-21.75629 48.68541,-48.68541s-21.75629,-48.68541 -48.68541,-48.68541l0.00001,0.00001z"/>
   <path stroke="null" id="svg_2" p-id="2294" d="m45.89512,89.25556l-5.93353,-2.43427c1.06499,2.28213 2.8907,4.10783 5.32497,5.02068c5.17282,2.28213 11.2585,-0.30428 13.54063,-5.47711c1.06499,-2.58641 1.06499,-5.32497 0,-7.91138c-1.06499,-2.58641 -3.04284,-4.56426 -5.47711,-5.62925s-5.17282,-0.91285 -7.60709,-0.15214l6.23782,2.58641c3.80355,1.67356 5.78139,6.08568 4.10783,9.88922c-1.8257,3.80355 -6.23782,5.62925 -10.19351,4.10783l-0.00001,0.00001zm46.25114,-37.88333c0,-6.69424 -5.47711,-12.32349 -12.32349,-12.32349c-6.69424,0 -12.32349,5.47711 -12.32349,12.32349s5.62925,12.32349 12.32349,12.32349s12.32349,-5.47711 12.32349,-12.32349zm-21.29987,0c0,-5.17282 4.10783,-9.12851 9.12851,-9.12851c5.17282,0 9.12851,4.10783 9.12851,9.12851c0,5.17282 -4.10783,9.12851 -9.12851,9.12851c-5.02068,0.15214 -9.12851,-3.95569 -9.12851,-9.12851z"/>
  </g>
 </g>

</svg>