<svg width="128" height="128" xmlns="http://www.w3.org/2000/svg" xmlns:xlink="http://www.w3.org/1999/xlink" version="1.1">
 <title>V</title>
 <defs>
  <path id="path-3" d="m115.192,63.93116c0,13.59349 -62.44732,51.18665 -75.29815,44.12232c-12.85083,-7.06433 -11.60828,-82.57517 0,-88.48323c11.60828,-5.90807 75.29815,30.76742 75.29815,44.36091z"/>
  <linearGradient id="linearGradient-1" y2="100%" x2="21.5676364%" y1="2.33817077%" x1="21.5676364%">
   <stop offset="0%" stop-color="#AFFA23"/>
   <stop offset="100%" stop-color="#64BB02"/>
  </linearGradient>
  <linearGradient id="linearGradient-2" y2="100%" x2="30.9317003%" y1="0%" x1="28.7753962%">
   <stop offset="0%" stop-color="#52C7FF"/>
   <stop offset="100%" stop-color="#0081F5"/>
  </linearGradient>
  <linearGradient id="linearGradient-5" y2="93.4027449%" x2="33.7189604%" y1="7.72784034%" x1="33.7189604%">
   <stop offset="0%" stop-color="#FFBB09"/>
   <stop offset="100%" stop-color="#FF7203"/>
  </linearGradient>
 </defs>
 <g>
  <title>Layer 1</title>
  <rect id="svg_2" height="128" width="128" y="0" x="0" stroke="#000" fill="#ffffff"/>
  <g fill-rule="evenodd" fill="none" id="V">
   <rect height="128" width="128" fill="#FFFFFF" id="矩形"/>
   <path fill="url(#linearGradient-1)" id="4" d="m94.5,63.50063c0,10.573 -58.39913,39.81293 -70.4169,34.3183c-12.01776,-5.49463 -10.85576,-64.22689 0,-68.82218c10.85577,-4.59529 70.4169,23.93088 70.4169,34.50388z"/>
   <mask fill="white" id="mask-4">
    <use id="svg_1" xlink:href="#path-3"/>
   </mask>
   <use xlink:href="#path-3" fill="url(#linearGradient-2)" id="3"/>
   <path mask="url(#mask-4)" fill="url(#linearGradient-5)" id="2" d="m94.5,63.50063c0,10.573 -58.39913,39.81293 -70.4169,34.3183c-12.01776,-5.49463 -10.85576,-64.22689 0,-68.82218c10.85577,-4.59529 70.4169,23.93088 70.4169,34.50388z"/>
   <path mask="url(#mask-4)" fill="#FFFFFF" id="1" d="m77.19489,63.89023c0,1.31105 -2.16995,3.24996 -5.3559,5.32926l-0.69784,0.44753c-0.11875,0.07489 -0.2387,0.14991 -0.35979,0.22505l-0.73976,0.45198l0,0l-0.76455,0.45362l0,0l-0.78682,0.45418l0,0l-0.80657,0.45368l0,0l-0.82379,0.45212l0,0l-0.8385,0.44949l0,0l-1.27979,0.66696l0,0l-0.86421,0.43825l0,0l-0.87008,0.43188l0,0l-0.87343,0.42446l0,0l-0.87425,0.41596l0,0l-0.87255,0.40641l0,0l-0.86833,0.39578l0,0l-0.86159,0.38409l0,0l-0.85231,0.37133l0,0l-0.84052,0.35751c-0.13897,0.05837 -0.27734,0.11613 -0.41505,0.17324l-0.81811,0.33478l0,0l-0.8,0.31828l0,0l-0.77938,0.30074c-0.12804,0.0486 -0.25511,0.09643 -0.38117,0.14345l-0.74371,0.27241c-0.12178,0.04375 -0.24243,0.08665 -0.36192,0.12869l-0.70237,0.24168l0,0l-0.67165,0.21986c-0.10924,0.03477 -0.2171,0.06858 -0.32352,0.10142l-0.62085,0.18514l0,0l-0.58382,0.16065l0,0l-0.54428,0.13511c-1.22188,0.28462 -2.10018,0.3519 -2.49067,0.1409c-0.49391,-0.26689 -0.90036,-1.37702 -1.21935,-3.03327l-0.10895,-0.60675c-0.05266,-0.31423 -0.1026,-0.64438 -0.14981,-0.98881l-0.09079,-0.70744l0,0l-0.08353,-0.74262l0,0l-0.07627,-0.77492c-0.0121,-0.13168 -0.02391,-0.26459 -0.03541,-0.39866l-0.06537,-0.81791l0,0l-0.05811,-0.84295c-0.00907,-0.14242 -0.01785,-0.28575 -0.02633,-0.42995l-0.04721,-0.87506l0,0l-0.03995,-0.89283l0,0l-0.03268,-0.9077l0,0l-0.02542,-0.91968l0,0l-0.01816,-0.92875l0,0l-0.0109,-0.93491l0,0l-0.00363,-0.93818l0,0l0.00363,-0.93853l0,0l0.0109,-0.936l0,0l0.01816,-0.93055l0,0l0.04085,-1.37927l0,0l0.03632,-0.90423l0,0l0.04358,-0.88864c0.00787,-0.14664 0.01604,-0.29252 0.02451,-0.43756l0.05448,-0.85978l0,0l0.06174,-0.83693c0.01089,-0.13742 0.02209,-0.27377 0.03359,-0.40898l0.07264,-0.79719l0,0l0.0799,-0.76708c0.01392,-0.12517 0.02814,-0.24897 0.04267,-0.37133l0.09079,-0.71646c0.04721,-0.34912 0.09715,-0.68423 0.14981,-1.00369l0.10895,-0.61758c0.31899,-1.68794 0.72544,-2.83844 1.21935,-3.1544c0.44627,-0.28548 1.52969,-0.19441 3.03495,0.1792l0.58382,0.15316l0,0l0.62085,0.17855c0.10642,0.03181 0.21428,0.06464 0.32352,0.09845l0.67165,0.21456l0,0l0.70237,0.2372l0,0l0.73057,0.25872l0,0l0.75623,0.27916l0,0l0.77938,0.29848l0,0l0.8,0.31671l0,0l0.81811,0.33383l0,0l0.83368,0.34986c0.1401,0.05958 0.28075,0.11978 0.42189,0.18059l0.85231,0.37182l0,0l0.86159,0.38509l0,0l0.86833,0.39725l0,0l0.87255,0.40833l0,0l0.87425,0.41828l0,0l0.87343,0.42715l0,0l0.87008,0.4349l0,0l0.86421,0.44157l0,0l0.85582,0.44712c0.14179,0.07492 0.28314,0.15003 0.42397,0.2253l0.8385,0.45339l0,0l0.82379,0.45619l0,0l0.80657,0.45789l0,0l0.78682,0.4585c0.2587,0.1528 0.5137,0.30553 0.76455,0.45799l0.73976,0.45638c0.24217,0.15174 0.47979,0.30303 0.71244,0.45368l0.6826,0.44987c3.00077,2.01421 5.01849,3.8793 5.01849,5.14353z"/>
  </g>
 </g>
</svg>