<svg width="128" height="128" xmlns="http://www.w3.org/2000/svg" p-id="1998" version="1.1" class="icon" t="1657203914726">
 <g>
  <title>Layer 1</title>
  <rect id="svg_12" height="128" width="128" y="0" x="0" stroke="null" fill="#ffffff"/>
  <g id="svg_11" stroke="null">
   <path id="svg_1" p-id="1999" d="m106.22014,28.87261l-3.79949,-3.87098c-4.51445,-4.59615 -11.88872,-4.59615 -16.40316,0l-1.76697,1.80782c-1.6444,1.67504 -2.69641,3.74842 -3.1356,5.92393c-1.00094,-0.41876 -2.03252,-0.80688 -3.09474,-1.15415c-4.44295,-1.46056 -9.16167,-2.20615 -14.01316,-2.20615c-4.8515,0 -9.57021,0.7456 -14.01316,2.20615c-1.38906,0.45962 -2.73727,0.98051 -4.04462,1.56269c-0.39833,-2.65556 -1.60355,-5.20898 -3.59521,-7.2415c-4.99449,-5.09662 -13.17564,-5.09662 -18.17013,0l-2.03252,2.07338c-4.99449,5.09662 -4.99449,13.43098 0,18.52761c1.90996,1.95081 4.27953,3.14581 6.76145,3.60543c-1.0418,2.73727 -1.56269,5.58688 -1.56269,8.49778l0,0.35748c0.03064,1.89974 -0.2962,3.87098 -0.96009,5.84222c-0.9703,2.89047 -1.47077,5.89329 -1.47077,8.92675c0,4.50423 1.07244,8.86547 3.17645,12.97137c2.01209,3.90162 4.87192,7.40492 8.50799,10.38731c3.585,2.95175 7.75218,5.26004 12.37898,6.86359c4.75957,1.65462 9.80513,2.49214 15.00389,2.49214c5.19876,0 10.24432,-0.83752 15.00389,-2.49214c4.6268,-1.61376 8.79398,-3.92205 12.37898,-6.86359c3.63607,-2.99261 6.4959,-6.48568 8.50799,-10.38731c2.11423,-4.1059 3.17645,-8.46714 3.17645,-12.97137c0,-3.03346 -0.49026,-6.03628 -1.47077,-8.92675c-0.66389,-1.98145 -0.99073,-3.94248 -0.96009,-5.84222l0,-0.35748c0,-2.78833 -0.48004,-5.51539 -1.42991,-8.1403c1.92017,-0.51068 3.72799,-1.53205 5.2294,-3.05389l1.76697,-1.80782c4.53487,-4.60637 4.53487,-12.13385 0.03064,-16.73z" stroke="null"/>
   <path id="svg_2" p-id="2000" fill="#FFFFFF" d="m98.7233,65.74398c-0.7456,-2.22658 -1.16436,-4.5553 -1.1235,-6.90445l0,-0.30641c0,-14.42171 -15.04475,-26.10616 -33.59278,-26.10616s-33.59278,11.68445 -33.59278,26.10616l0,0.30641c0.03064,2.34915 -0.37791,4.67786 -1.1235,6.90445c-0.84774,2.52278 -1.29714,5.17833 -1.29714,7.9156c0,16.3521 16.1274,29.60945 36.01342,29.60945s36.01342,-13.25735 36.01342,-29.60945c0,-2.73727 -0.4494,-5.39282 -1.29714,-7.9156z" stroke="null"/>
   <path id="svg_3" p-id="2001" fill="#E0E0E0" d="m64.00701,99.59211c-19.14043,0 -34.78778,-12.26663 -35.95214,-27.76077c-0.04085,0.60261 -0.0715,1.21543 -0.0715,1.82825c0,16.3521 16.1274,29.60945 36.01342,29.60945s36.01342,-13.25735 36.01342,-29.60945c0,-0.61282 -0.02043,-1.22564 -0.0715,-1.82825c-1.14393,15.49415 -16.8015,27.76077 -35.93171,27.76077l0.00001,0z" stroke="null"/>
   <path id="svg_4" p-id="2002" fill="#DBDBDB" d="m73.76164,72.15168a12.7671,8.64077 44.999 1 0 12.21968,-12.22011a12.7671,8.64077 44.999 1 0 -12.21968,12.22011z" stroke="null"/>
   <path id="svg_5" p-id="2003" fill="#DBDBDB" d="m54.00854,72.14757a8.64077,12.7671 45.001 1 0 -12.21968,-12.22011a8.64077,12.7671 45.001 1 0 12.21968,12.22011z" stroke="null"/>
   <path id="svg_6" p-id="2004" d="m73.75912,70.56961a12.7671,8.64077 44.999 1 0 12.21968,-12.22011a12.7671,8.64077 44.999 1 0 -12.21968,12.22011z" stroke="null"/>
   <path id="svg_7" p-id="2005" d="m54.00601,70.57056a8.64077,12.7671 45.001 1 0 -12.21968,-12.22011a8.64077,12.7671 45.001 1 0 12.21968,12.22011z" stroke="null"/>
   <path id="svg_8" p-id="2006" fill="#FFFFFF" d="m48.25753,63.49697m-3.55436,0a3.55436,3.55436 0 1 0 7.10872,0a3.55436,3.55436 0 1 0 -7.10872,0z" stroke="null"/>
   <path id="svg_9" p-id="2007" fill="#FFFFFF" d="m79.24582,63.49697m-3.55436,0a3.55436,3.55436 0 1 0 7.10872,0a3.55436,3.55436 0 1 0 -7.10872,0z" stroke="null"/>
   <path id="svg_10" p-id="2008" d="m79.18454,86.968l-11.92957,2.13466c-0.56175,0.10214 -1.13372,-0.05107 -1.56269,-0.41876c-0.2962,-0.24513 -0.50047,-0.57197 -0.61282,-0.92944c0.40855,-0.13278 0.79667,-0.34727 1.11329,-0.63325l4.11611,-3.68714c1.79761,-1.61376 0.42897,-4.23868 -2.21637,-4.23868l-8.23222,0c-2.64534,0 -4.01397,2.62491 -2.21637,4.23868l4.11611,3.68714c0.32684,0.28598 0.70474,0.50047 1.11329,0.63325c-0.10214,0.35748 -0.31662,0.68432 -0.61282,0.92944c-0.43919,0.36769 -1.00094,0.51068 -1.56269,0.41876l-11.92957,-2.13466l-0.35748,2.01209l11.92957,2.13466c0.23491,0.04085 0.46983,0.06128 0.70474,0.06128c0.91923,0 1.81803,-0.31662 2.53299,-0.91923c0.14299,-0.12256 0.27577,-0.24513 0.39833,-0.38812c0.12256,0.13278 0.25534,0.26556 0.39833,0.38812c0.71496,0.60261 1.61376,0.91923 2.53299,0.91923c0.23491,0 0.46983,-0.02043 0.70474,-0.06128l11.92957,-2.13466l-0.35748,-2.01209l0.00002,0z" stroke="null"/>
  </g>
 </g>

</svg>