<svg width="128" height="128" xmlns="http://www.w3.org/2000/svg" fill="none">
 <g>
  <title>Layer 1</title>
  <rect width="128" height="128" fill="#FF5CA1" id="svg_2"/>
  <path d="m92.2,55.0515c0.4667,0 2.3333,-0.4687 2.3333,-0.4687l0.9334,7.0309l-1.8667,0.4688c0,-0.9375 -1.4,-6.5622 -1.4,-7.031zm3.7333,-0.9374l0.9334,7.4996l2.8,0c-0.4667,-2.8123 -1.4,-7.4996 -1.4,-7.4996l-2.3334,0zm-1.8666,10.312c0,0 4.2,-0.9375 5.6,-0.4687c0.9333,2.8123 2.3333,18.7491 2.3333,19.2178c-0.933,0 -4.2,0.4687 -4.2,0.4687c-0.4667,-0.9374 -3.7333,-18.2803 -3.7333,-19.2178l0,0zm15.4003,-9.3746l2.333,0c0,0.4688 0.467,7.031 0,7.031l-1.867,0c0,-0.4688 -0.466,-6.5622 -0.466,-7.031zm3.266,0l0,7.4997l2.8,0l0,-7.4997c-0.933,0 -1.866,-0.4687 -2.8,0zm-2.8,9.8433c0,0 4.2,-0.4687 5.6,0c0.467,3.2811 0.467,18.7491 0.467,19.2178l-4.2,0c0,-0.9374 -1.867,-18.7491 -1.867,-19.2178l0,0zm-9.8,-19.2178c2.334,12.6556 4.2,34.6858 4.667,36.092l4.2,0c-1.867,-13.5931 -3.267,-35.6233 -3.267,-36.092c-0.466,-0.9375 -5.6,0 -5.6,0l0,0zm-5.5997,30.4673c-0.4666,-3.7498 -13.0666,-7.4997 -20.5333,-6.5622c0,0 -0.9333,-7.9684 -1.4,-15.468c-0.4667,-6.5622 0,-13.1244 0,-14.0618c-0.4667,-0.4687 -5.6,2.3436 -8.4,3.2811c0,0 3.2667,14.0618 5.6,43.5916c0,0 3.7333,0.4687 10.2667,-0.9375c7.4666,-1.4061 14.9333,-5.1559 14.4666,-9.8432l0,0zm-15.4,6.0934l-1.4,-7.9683c0.4667,0 7,2.3436 7.9334,2.8123c0,0.4688 -6.5334,5.156 -6.5334,5.156l0,0zm-40.1333,-27.1862c0.4667,0 2.3333,-0.4687 2.3333,-0.4687l0.9334,7.0309c-0.4667,0 -1.8667,0.4688 -1.8667,0.4688c0,-0.9375 -1.4,-6.5622 -1.4,-7.031l0,0zm3.7333,-0.9374l0.9334,7.4996l2.8,0c-0.4667,-2.8123 -0.9334,-7.4996 -0.9334,-7.4996l-2.8,0zm-1.8666,10.312c0,0 4.2,-0.9375 5.6,-0.4687c0.9333,2.8123 2.3333,18.7491 2.3333,19.2178c-0.9333,0 -4.2,0.4687 -4.2,0.4687c-0.4667,-0.9374 -3.7333,-18.2803 -3.7333,-19.2178l0,0zm15.4,-9.3746l2.3333,0c0,0.4688 0.4667,7.031 0,7.031l-1.8667,0c0,-0.4688 -0.4666,-6.5622 -0.4666,-7.031zm3.7333,0l0,7.4997l2.8,0l0,-7.4997c-0.9333,0 -1.8667,-0.4687 -2.8,0zm-3.2667,9.8433c0,0 4.2,-0.4687 5.6,0c0.4667,3.2811 0.4667,18.7491 0.4667,19.2178l-4.2,0c0,-0.9374 -1.8667,-18.7491 -1.8667,-19.2178l0,0zm-9.8,-19.2178c2.3334,12.6556 4.2,34.6858 4.6667,36.092l4.2,0c-1.4,-13.5931 -2.8,-35.6233 -2.8,-36.5607c-0.9333,-0.4687 -6.0667,0.4687 -6.0667,0.4687zm-5.6,30.4673c-0.4666,-3.7498 -13.0666,-7.4997 -20.5333,-6.5622c0,0 -0.9333,-7.9684 -1.4,-15.468c-0.4667,-6.5622 0,-13.1244 0,-14.0618c-0.4667,-0.4687 -5.6,2.3436 -8.4,3.2811c0,0 3.2667,14.0618 5.6,43.5916c0,0 3.7333,0.4687 10.2667,-0.9375c6.5333,-1.4061 15.4,-5.1559 14.4666,-9.8432zm-15.4,6.0934l-0.9333,-7.9683c0.4667,0 7,2.3436 7.9333,2.8123c-0.4666,0.4688 -7,5.156 -7,5.156" fill="white" id="svg_3"/>
 </g>

</svg>