<svg width="128" height="128" xmlns="http://www.w3.org/2000/svg" t="1668783633468" class="icon" version="1.1" p-id="2712">
 <g>
  <title>Layer 1</title>
  <path fill-opacity="0.8" d="m25.97253,100.68728a6.40738,6.40738 0 1 1 -8.77811,-9.33555l30.66091,-28.8332a6.40738,6.40738 0 0 1 9.05363,0.27392l22.56839,23.95719l9.32914,-9.61107a6.40738,6.40738 0 0 1 9.34356,0.16018l13.07746,14.4166a6.40738,6.40738 0 0 1 -9.49253,8.60831l-8.48978,-9.35958l-9.24264,9.51816a6.40738,6.40738 0 0 1 -9.25866,-0.06888l-22.77343,-24.17344l-25.99794,24.44735l0,0.00001zm24.44415,-49.51942a12.81476,12.81476 0 1 1 0,-25.62951a12.81476,12.81476 0 0 1 0,25.62951z" p-id="2713" fill="#ffffff" id="svg_1" stroke="null"/>
 </g>

</svg>