<svg width="128" height="128" xmlns="http://www.w3.org/2000/svg" fill="none">
 <defs>
  <clipPath id="clip0_13_110">
   <rect width="128" height="128" fill="white" y="17" x="14" id="svg_1"/>
  </clipPath>
 </defs>
 <g>
  <title>Layer 1</title>
  <g id="svg_6" stroke="null">
   <rect width="128" height="128" fill="#2455F4" id="svg_2" stroke="null" y="0" x="0"/>
   <g clip-path="url(#clip0_13_110)" id="svg_3" stroke="null">
    <path fill-rule="evenodd" clip-rule="evenodd" d="m93.02553,61.40057l0,-16.896l-30.17344,0l0,16.57114l-14.10278,0l0,45.16429l8.1993,0l0,-36.71629l5.90349,0l0,27.61843l30.17344,0l0,-27.61843l5.90349,0l0,36.71629l8.1993,0l0,-44.83942l-14.10278,0l-0.00002,-0.00001zm-22.63014,-8.77286l14.43085,0l0,8.77286l-14.43085,0l0,-8.77286zm0,36.06643l14.43085,0l0,-19.49542l-14.43085,0l0,19.49542z" fill="white" id="svg_4" stroke="null"/>
    <path d="m77.61088,22.73472l-9.83923,0l3.27974,7.47328l-22.30208,0l0,-4.87386l-27.87763,4.224l0,7.47328l11.80698,-1.6247l0,12.02214l-11.80698,0l0,7.47328l11.80698,0l-1.63981,0l-13.11885,40.94029l7.5433,0l7.21536,-22.09472l0,32.49229l8.1993,0l0,-51.33785l7.87136,0l0,-7.47328l-7.87136,0l0,-13.32173l7.87136,-1.29971l0,5.52371l58.37901,0l0,-8.12314l-26.23782,0l-3.27962,-7.47328l-0.00001,0z" fill="white" id="svg_5" stroke="null"/>
   </g>
  </g>
 </g>
</svg>