<svg width="128" height="128" xmlns="http://www.w3.org/2000/svg" xmlns:xlink="http://www.w3.org/1999/xlink" version="1.1">
 <title>虎牙</title>
 <defs>
  <path id="path-2" d="m7.38021,70.47197c22.78026,27.97221 85.2114,21.89486 91.65655,-11.23454c3.6381,-18.70059 -4.14362,-34.36748 -16.28789,-44.46702c-4.74839,-3.94891 -12.77277,-12.47165 -18.4332,-14.56683c-3.25299,-1.20408 -3.97788,3.34794 -7.3127,2.83485c-2.31323,-0.35591 -4.62689,-0.53866 -6.91424,-0.53866c-4.15787,0.04648 -6.15089,0.63188 -10.28321,1.96345c-4.36191,1.40555 -14.36393,-6.43016 -18.36536,-3.87243c-4.06859,2.60065 -5.29488,16.59629 -10.5599,22.49376c-11.44984,13.87542 -15.76683,32.32487 -3.50005,47.38742z"/>
  <linearGradient id="linearGradient-1" y2="77.989446%" x2="6.34307802%" y1="31.6387697%" x1="95.5793364%">
   <stop offset="0%" stop-color="#FFB835"/>
   <stop offset="100%" stop-color="#FFA805"/>
  </linearGradient>
 </defs>
 <g>
  <title>Layer 1</title>
  <rect id="svg_3" height="128" width="128" y="0" x="0" fill="#ffffff"/>
  <g fill-rule="evenodd" fill="none" id="虎牙">
   <rect height="128" width="128" fill="#FFFFFF" id="矩形"/>
   <g id="svg_1">
    <path fill="#BD5020" id="1" d="m93.99086,34.5533c-4.74839,-3.9489 -10.14752,-11.96484 -15.80794,-14.06002c-3.25299,-1.20408 -6.3707,6.13874 -9.70551,5.62565c-2.31324,-0.35591 -10.61781,-0.62626 -14.75013,0.70531c-4.36192,1.40555 -13.18798,-8.90044 -18.68964,-6.33096c-5.50166,2.56949 -4.26415,17.08656 -9.52918,22.98403c-11.44983,13.87542 80.62667,1.17553 68.4824,-8.92401z"/>
    <g id="形状结合">
     <mask fill="white" id="mask-3">
      <use id="svg_2" xlink:href="#path-2"/>
     </mask>
     <use x="13.91127" y="21.50023" xlink:href="#path-2" fill="url(#linearGradient-1)" id="1"/>
     <path mask="url(#mask-3)" fill="#BD5020" id="1" d="m40.5393,84.96755c-3.12097,5.72503 -4.99415,16.04008 -3.38735,19.38415c1.60679,3.34407 -11.64349,-2.85957 -11.64349,-7.06047c0,-4.20091 13.5338,-14.15463 15.03084,-12.32368zm69.09771,6.1705c0,6.19777 -7.38397,9.05046 -7.38397,6.46871c0,-2.58176 -3.66049,-12.53499 -4.83935,-14.1773c-1.17887,-1.6423 12.22332,1.51082 12.22332,7.70859zm-95.55534,-12.33358c0.91604,-3.07932 16.31793,-6.5298 14.88921,-4.99901c-1.42872,1.53078 -9.99574,11.64683 -9.33413,15.76436c0.66161,4.11754 -6.47112,-7.68603 -5.55508,-10.76535zm100.91619,-7.65385c0.33025,4.66515 -0.05433,7.81157 -1.15374,9.43926c-2.20447,-4.27508 -5.65355,-7.56478 -8.6965,-9.84707c4.33603,-0.55199 7.61944,-0.41605 9.85024,0.40781z"/>
    </g>
    <path fill="#F9FFFF" stroke="#BE5027" id="1" d="m68.15859,32.86074c9.82318,0 18.27786,3.3896 24.31941,8.90575c6.18229,5.64466 9.83338,13.51445 9.83338,22.23351c0,1.96439 -0.80184,3.67167 -2.27851,5.13943c-1.60575,1.59605 -3.99347,2.90849 -7.02247,3.96646c-6.56185,2.29194 -16.09921,3.37054 -27.35094,3.37054l0,0l-1.05888,0.00047l-1.05648,0.00105l0,0l-0.80193,0.00084l0,0l-0.25104,0.00023l-2.09467,0c-8.80037,-0.01069 -17.04659,-0.18611 -22.66669,-2.06619c-2.16063,-0.72279 -3.92658,-1.69617 -5.15964,-3.0304c-1.11128,-1.20247 -1.77981,-2.6987 -1.91616,-4.55632c-0.76022,-10.35734 2.99549,-18.43703 9.24147,-24.10756c7.17872,-6.51734 17.62514,-9.85781 28.26315,-9.85781z"/>
    <path fill="#BA5227" id="1" d="m62.03259,42.61404c4.01064,-1.6077 18.62105,7.97537 18.62105,10.96054c0,2.98517 -14.66375,15.09053 -19.60435,11.69548c-4.9406,-3.39504 -3.02734,-21.04832 0.9833,-22.65602z"/>
    <path fill="#FFEFBE" id="1" d="m50.29805,86.00997c0,3.6478 2.08985,9.01504 3.9192,9.01504c1.21958,0 2.88085,-1.9586 4.98384,-5.8758c-4.13136,-0.94969 -7.09904,-1.9961 -8.90304,-3.13924z"/>
    <path fill="#FFEFBE" id="2" d="m80.44043,88.02558c0,0.82729 3.72685,4.28999 4.89513,4.08296c1.16827,-0.20703 2.77225,-6.29285 1.4182,-7.59924c-1.35406,-1.3064 -6.31333,2.68899 -6.31333,3.51628z"/>
    <path stroke-linejoin="round" stroke-linecap="round" stroke-width="2" stroke="#BD5020" id="1" d="m49.41394,84.74517c5.96648,7.19474 33.85907,6.5585 38.12693,-2.38301"/>
   </g>
  </g>
 </g>
</svg>