<svg width="128" height="128" xmlns="http://www.w3.org/2000/svg" xmlns:xlink="http://www.w3.org/1999/xlink" fill="none">
 <defs>
  <rect id="path_0" x="0" y="0" width="160" height="160"/>
  <path id="path_1" d="m160,160l0,-160l-160,0l0,160l160,0z"/>
 </defs>
 <g>
  <title>Layer 1</title>
  <g id="svg_18" stroke="null">
   <rect fill="#000000" x="0" y="0" width="128" height="128" id="svg_17" stroke="null"/>
   <g id="svg_1" stroke="null">
    <mask id="bg-mask-0" fill="white" stroke="null">
     <use xlink:href="#path_0" id="svg_2" stroke="null"/>
    </mask>
    <g mask="url(#bg-mask-0)" id="svg_3" stroke="null">
     <g id="svg_4" stroke="null">
      <g id="svg_5" stroke="null">
       <g id="svg_6" stroke="null">
        <mask id="mask-1" fill="white" stroke="null">
         <use xlink:href="#path_1" id="svg_7" stroke="null"/>
        </mask>
        <g mask="url(#mask-1)" id="svg_8" stroke="null"/>
        <g mask="url(#mask-1)" id="svg_9" stroke="null">
         <g id="svg_10" stroke="null"/>
        </g>
        <g mask="url(#mask-1)" id="svg_11" stroke="null">
         <g id="svg_12" stroke="null">
          <g id="svg_13" stroke="null">
           <g id="svg_14" stroke="null">
            <g id="svg_15" stroke="null">
             <g id="svg_16" stroke="null">
              <path id="形状结合" fill-rule="evenodd" d="m80.18116,104.21019c1.87551,0 3.59208,-1.03312 4.47421,-2.68612l14.8849,-27.94991c0.78676,-1.48611 0.78676,-3.2742 0,-4.76031l-23.4757,-44.08251c-0.58808,-1.0967 -1.73247,-1.7881 -2.98016,-1.7881c-1.24769,0 -2.39207,0.6914 -2.98016,1.7881l-6.53251,12.26236l-6.52456,-12.26236c-0.58014,-1.0967 -1.73247,-1.7881 -2.98016,-1.7881c-1.24769,0 -2.39207,0.6914 -2.98016,1.7881l-23.46776,44.08251c-0.79471,1.48611 -0.79471,3.2742 0,4.76031l14.87695,27.94991c0.88213,1.65299 2.5987,2.68612 4.47421,2.68612l33.21089,0l0.00001,0zm-8.97377,-33.01984l-0.02384,0c0,-1.2318 -0.30199,-2.4636 -0.89802,-3.57619l-1.96293,-3.6954l4.80004,-9.012l4.45037,8.36829c1.33511,2.34439 2.09803,5.05435 2.09803,7.94709c0,8.88485 -7.20006,16.08491 -16.08491,16.08491c-8.88485,0 -16.08491,-7.20006 -16.08491,-16.08491c0,-1.54968 0.22252,-3.05168 0.62782,-4.47421l0.11921,-0.38941l0.03974,-0.11126c0.2861,-0.89007 0.65166,-1.76425 1.10465,-2.60665l9.39346,-17.64254l-3.22652,-6.04774c-0.29404,-0.5563 -0.86623,-0.89802 -1.48611,-0.89802c-0.62782,0 -1.20001,0.34172 -1.49405,0.89802l-16.00544,30.05589c-0.38941,0.73908 -0.38941,1.6371 0,2.37618l11.72196,22.01344c0.44504,0.8265 1.30332,1.34306 2.24108,1.34306l26.08235,0c0.93776,0 1.79604,-0.51656 2.24108,-1.34306l11.72196,-22.01344c0.39735,-0.73908 0.39735,-1.6371 0,-2.37618l-16.00544,-30.05589c-0.29404,-0.5563 -0.86623,-0.89802 -1.48611,-0.89802c-0.62782,0 -1.20001,0.34172 -1.49405,0.89802l-3.22652,6.04774l0.00795,0.00795l-4.7921,9.00405l-0.00795,-0.00795l-6.61993,12.4372l0.00795,0c-0.38146,0.65961 -0.65961,1.38279 -0.8265,2.15366l-0.02384,0.11921c-0.09537,0.49272 -0.15099,0.98544 -0.15099,1.47816l0,0.02384c0,4.21196 3.4093,7.62126 7.62126,7.62126c4.16427,0 7.54179,-3.33778 7.62126,-7.47821l0,-0.16689l-0.00001,0z" fill="#FFFFFF" stroke="null"/>
             </g>
            </g>
           </g>
          </g>
         </g>
        </g>
       </g>
      </g>
     </g>
    </g>
   </g>
  </g>
 </g>
</svg>