<svg width="128" height="128" xmlns="http://www.w3.org/2000/svg" fill="none">

 <g>
  <title>Layer 1</title>
  <g stroke="null" id="svg_3">
   <path stroke="null" id="svg_1" fill="#E8011E" d="m128,0l-128,0l0,128l128,0l0,-128z"/>
   <path stroke="null" id="svg_2" fill="white" d="m83.76371,40.58931l6.23808,0c2.79066,0 5.25312,-1.31328 6.89472,-3.2832l0,17.23686c0,3.11898 -1.96992,5.90976 -5.0889,6.89472l0.65664,0c1.14906,0.49242 2.46234,0.49242 3.61152,0l0.82074,0l0,15.43104c0,4.10394 -3.2832,7.38714 -7.38726,7.38714l-5.74554,0l0,8.0439l-0.32832,0c-2.46234,0 -4.9248,1.14906 -6.5664,2.95488l0,-47.6064c-0.16422,-3.93984 2.95488,-7.05894 6.89472,-7.05894zm0,19.86342l0,20.84826l2.95488,0c1.96992,0 3.61152,-1.6416 3.61152,-3.61152l0,-14.28186l-3.2832,0c0,0 -1.6416,0.1641 -2.62656,1.8057c0,0 1.14906,-4.76058 4.43226,-4.76058l1.4775,0l0,-16.90854l-2.95488,0c-1.96992,0 -3.61152,1.6416 -3.61152,3.61152l0,13.29702zm-17.23674,26.4297l-29.71302,0c-2.95488,0.16422 -5.25312,2.29824 -5.58144,5.08902l0,-41.36832c0,-4.10406 3.2832,-7.38726 7.38714,-7.38726l10.34214,0l0,-8.208l1.14906,0c2.79078,0 5.25325,-1.31328 6.89485,-3.4473l0,11.4912l10.99866,0c3.2832,0 5.90976,-2.62656 5.90976,-5.90976l0,42.18906c-0.16422,4.26816 -3.4473,7.55136 -7.38714,7.55136zm-0.82086,-40.71168l-8.86464,0l0,17.23686l5.58144,0c0.98496,0 2.62656,-1.80582 2.62656,-1.80582c0,0 -0.98496,4.7607 -4.43238,4.7607l-3.61139,0l0,14.28186c0,0.32832 -0.32845,0.65664 -0.65677,0.65664l-6.5664,0c-0.32832,0 -0.65651,-0.32832 -0.65651,-0.65664l0,-14.28186l-6.56653,0c-0.98496,0 -2.62656,1.8057 -2.62656,1.8057c0,0 0.98509,-4.76058 4.43238,-4.76058l4.43238,0l0,-17.23686l-5.74566,0c-1.96992,0 -3.61152,1.6416 -3.61152,3.61152l0,34.14528l22.81818,0c1.96992,0 3.61152,-1.6416 3.61152,-3.61152l-0.1641,-34.14528z"/>
  </g>
 </g>
</svg>