<svg width="128" height="128" xmlns="http://www.w3.org/2000/svg" version="1.0" preserveAspectRatio="xMidYMid meet">
 <g>
  <title>Layer 1</title>
  <rect fill="#000000" stroke="null" x="0" y="0" width="128" height="128" id="svg_3"/>
  <path stroke="null" d="m73.2007,26.22489c-2.37159,0.1452 -6.67917,1.54879 -8.85716,2.90398c-4.01718,2.41998 -9.00235,8.03436 -9.72836,10.88995c-0.1936,0.77439 -0.5808,1.30679 -0.9196,1.16159c-0.3872,-0.0968 -0.67759,-2.37159 -0.82279,-7.40516c-0.1452,-3.96878 -0.3388,-7.21156 -0.484,-7.21156c-0.1452,0 -1.20999,0.2904 -2.41998,0.6292c-2.27479,0.67759 -4.45278,1.30679 -9.43795,2.71039c-1.59719,0.484 -3.87198,1.16159 -5.08197,1.5004c-1.20999,0.3872 -2.90398,0.82279 -3.77518,0.968c-0.8712,0.1936 -1.74239,0.6292 -1.88759,1.0164c-0.1452,0.3872 0.4356,2.17799 1.30679,3.92038c2.66199,5.37238 2.90398,7.88916 2.90398,29.42706c-0.0484,19.16631 -0.6292,29.62066 -1.88759,32.81504c-0.2904,0.77439 -0.4356,1.59719 -0.24199,1.83919c0.1452,0.24199 5.46917,0.4356 12.14834,0.4356l11.85795,0l-0.2904,-1.35519c-1.5004,-6.19517 -1.83919,-11.32555 -2.08119,-32.42784c-0.1936,-18.73071 -0.1452,-22.07029 0.484,-22.98989c0.3872,-0.5808 1.98439,-1.74239 3.53318,-2.51679c2.51679,-1.25839 3.43638,-1.452 8.08276,-1.59719c4.93678,-0.1936 5.32398,-0.0968 7.11477,1.0648c3.67839,2.41998 3.62999,2.08119 3.77518,23.47389c0.1452,17.90792 -0.1452,24.68388 -1.35519,31.50824c-0.24199,1.452 -0.5324,3.09759 -0.5808,3.62999c-0.1452,0.9196 0.1936,0.968 11.61594,1.11319c10.11555,0.0968 11.76114,0 12.00314,-0.6292c0.1936,-0.3872 -0.0968,-2.32319 -0.5324,-4.25918c-0.72599,-2.95238 -0.9196,-7.40516 -1.25839,-28.65266c-0.1936,-13.84233 -0.5808,-26.37787 -0.82279,-27.87827c-0.5324,-3.09759 -2.61359,-7.74396 -4.11398,-9.29276c-1.54879,-1.54879 -3.72678,-3.00078 -5.66277,-3.72678c-1.74239,-0.6292 -9.48635,-1.30679 -12.58394,-1.0648l-0.00003,-0.00001z" id="svg_2" fill="#ffffff"/>
 </g>

</svg>