<svg width="128" height="128" xmlns="http://www.w3.org/2000/svg" fill="none">

 <g>
  <title>Layer 1</title>
  <g stroke="null" id="svg_1">
   <path stroke="null" fill="#067BEF" d="m0,128l128,0l0,-128l-128,0l0,128z" fill-rule="evenodd" id="矩形 1"/>
   <path stroke="null" fill="#FFFFFF" d="m68.52,59.4c0,-15.88 -9.6,-28.24 -26,-28.28c-15.72,0 -26.52,12.08 -26.52,29.28c0,16.4 9.96,28.48 25.72,28.48c15.4,0 26.8,-10.72 26.8,-29.48zm-26.2356,21.276c9.88,0 15.44,-9.12 15.44,-20.79988c0,-10.56 -5.24,-20.52 -15.44,-20.52c-10.08,0 -15.48,9.4 -15.48,20.92c0,11.35988 5.72,20.39988 15.48,20.39988zm59.55,-15.4936l0,22.8l10.16,0l0,-23.96c0,-12.8 -7.32,-17.36 -14.36,-17.36c-6.68,0 -11.08,3.8 -12.84,6.96l-0.24,0l-0.48,-6.08l-8.96,0c0.24,3.52 0.32,7.4 0.32,12.04l0.04,28.44l10.28,0l0,-23.72c0,-1.16 0.08,-2.4 0.4,-3.32c1.08,-3.08 3.88,-6 7.96,-6c5.52,0 7.72,4.4 7.72,10.2z" fill-rule="evenodd" id="分组 1"/>
  </g>
 </g>
</svg>